<svg width="16" height="16" viewBox="0 0 16 16" fill="none" xmlns="http://www.w3.org/2000/svg">
<path fill-rule="evenodd" clip-rule="evenodd" d="M10.405 9.01904C10.3844 8.98957 10.3637 8.96069 10.3431 8.93199C10.1757 8.69859 10.0161 8.47614 10.0161 8.03021V6.36786C10.0161 6.31007 10.0164 6.25267 10.0167 6.19571C10.0204 5.55834 10.0237 4.97674 9.56403 4.53181C9.16985 4.13874 8.51506 4.00006 8.01429 4.00006C7.03488 4.00006 5.9423 4.37887 5.71318 5.63411C5.68893 5.76744 5.78232 5.83724 5.86698 5.85685L6.86426 5.96877C6.95765 5.96386 7.02509 5.86867 7.04317 5.77279C7.12868 5.34025 7.47799 5.13246 7.87048 5.13246C8.08215 5.13246 8.32253 5.21272 8.44782 5.4096C8.57701 5.60589 8.57496 5.86801 8.57312 6.10239C8.57291 6.1297 8.5727 6.15663 8.5727 6.18303V6.32237C8.48016 6.3331 8.38321 6.34326 8.28334 6.35373C7.73945 6.41075 7.10927 6.47682 6.63729 6.69137C5.99294 6.98076 5.54046 7.5696 5.54046 8.43511C5.54046 9.54431 6.21375 10.0988 7.08063 10.0988C7.81221 10.0988 8.21257 9.91977 8.77694 9.32315C8.80513 9.36552 8.83046 9.40458 8.85433 9.44137C8.98896 9.64894 9.07683 9.78442 9.36685 10.0346C9.44342 10.077 9.54471 10.0754 9.61255 10.0116C9.81805 9.82213 10.1912 9.48591 10.4016 9.30309C10.4856 9.23152 10.4707 9.1158 10.405 9.01904ZM8.38019 8.53968C8.21684 8.84068 7.95665 9.02483 7.66755 9.02483C7.27336 9.02483 7.0419 8.71269 7.0419 8.25094C7.0419 7.34195 7.82858 7.17696 8.5725 7.17696C8.5725 7.23136 8.57298 7.28604 8.57347 7.34086C8.57712 7.75235 8.58084 8.17201 8.38019 8.53968Z" fill="currentColor"/>
<path d="M11.6349 10.833C10.6498 11.5948 9.22124 12.0001 7.99091 12.0001C6.26725 12.0001 4.71463 11.3323 3.53979 10.2207C3.44764 10.1333 3.52989 10.0139 3.6406 10.0818C4.90833 10.8549 6.47578 11.3203 8.09467 11.3203C9.18688 11.3203 10.3873 11.083 11.4918 10.5917C11.6584 10.5178 11.7981 10.707 11.6349 10.833Z" fill="currentColor"/>
<path d="M10.8945 10.3024C11.2117 10.2623 11.919 10.1734 12.0449 10.3423C12.1709 10.5111 11.9062 11.205 11.7868 11.5178L11.7859 11.5201C11.75 11.6144 11.8273 11.652 11.9086 11.5806C12.4372 11.1174 12.5738 10.1465 12.4655 10.0058C12.358 9.86701 11.4339 9.74687 10.8699 10.162C10.7832 10.2264 10.798 10.3142 10.8945 10.3024Z" fill="currentColor"/>
</svg>
